<svg width="54" height="52" viewBox="0 0 54 52" fill="none" xmlns="http://www.w3.org/2000/svg">
<ellipse cx="27" cy="26" rx="27" ry="26" fill="#D9D9D9"/>
<path d="M40.3332 41V37.6667C40.3332 35.8986 39.6308 34.2029 38.3805 32.9526C37.1303 31.7024 35.4346 31 33.6665 31H20.3332C18.5651 31 16.8694 31.7024 15.6191 32.9526C14.3689 34.2029 13.6665 35.8986 13.6665 37.6667V41" stroke="black" stroke-width="2" stroke-linecap="round" stroke-linejoin="round"/>
<path d="M27.0002 24.3333C30.6821 24.3333 33.6668 21.3486 33.6668 17.6667C33.6668 13.9848 30.6821 11 27.0002 11C23.3183 11 20.3335 13.9848 20.3335 17.6667C20.3335 21.3486 23.3183 24.3333 27.0002 24.3333Z" stroke="black" stroke-width="2" stroke-linecap="round" stroke-linejoin="round"/>
</svg>
