<svg width="19" height="17" viewBox="0 0 19 17" fill="none" xmlns="http://www.w3.org/2000/svg">
<path d="M5.45 0.776368C2.71625 0.776368 0.5 2.99262 0.5 5.72637C0.5 10.6764 6.35 15.1764 9.5 16.2231C12.65 15.1764 18.5 10.6764 18.5 5.72637C18.5 2.99262 16.2837 0.776368 13.55 0.776368C11.876 0.776368 10.3955 1.60752 9.5 2.87967C9.04356 2.22951 8.43717 1.69891 7.73219 1.33279C7.02721 0.966666 6.24438 0.775807 5.45 0.776368Z" fill="#FDFDFD"/>
<path d="M5.45 0.776368C2.71625 0.776368 0.5 2.99262 0.5 5.72637C0.5 10.6764 6.35 15.1764 9.5 16.2231C12.65 15.1764 18.5 10.6764 18.5 5.72637C18.5 2.99262 16.2837 0.776368 13.55 0.776368C11.876 0.776368 10.3955 1.60752 9.5 2.87967C9.04356 2.22951 8.43717 1.69891 7.73219 1.33279C7.02721 0.966666 6.24438 0.775807 5.45 0.776368Z" fill="black" fill-opacity="0.2"/>
</svg>
