<svg width="21" height="19" viewBox="0 0 21 19" fill="none" xmlns="http://www.w3.org/2000/svg">
<path fill-rule="evenodd" clip-rule="evenodd" d="M1.88034 2.36966C4.02339 0.226607 7.5322 0.260843 9.71749 2.44613L10.3471 3.07571L11.206 2.21673C13.3491 0.0736782 16.8579 0.107914 19.0432 2.2932C21.2285 4.47848 21.2627 7.98729 19.1197 10.1303L10.5 18.75L1.95681 10.2068C-0.228477 8.02152 -0.262713 4.51271 1.88034 2.36966Z" fill="#FDFDFD"/>
<path fill-rule="evenodd" clip-rule="evenodd" d="M1.88034 2.36966C4.02339 0.226607 7.5322 0.260843 9.71749 2.44613L10.3471 3.07571L11.206 2.21673C13.3491 0.0736782 16.8579 0.107914 19.0432 2.2932C21.2285 4.47848 21.2627 7.98729 19.1197 10.1303L10.5 18.75L1.95681 10.2068C-0.228477 8.02152 -0.262713 4.51271 1.88034 2.36966Z" fill="black" fill-opacity="0.2"/>
</svg>
