<?xml version="1.0" encoding="UTF-8" standalone="no"?>
<svg
   xmlns:dc="http://purl.org/dc/elements/1.1/"
   xmlns:cc="http://creativecommons.org/ns#"
   xmlns:rdf="http://www.w3.org/1999/02/22-rdf-syntax-ns#"
   xmlns:svg="http://www.w3.org/2000/svg"
   xmlns="http://www.w3.org/2000/svg"
   xmlns:sodipodi="http://sodipodi.sourceforge.net/DTD/sodipodi-0.dtd"
   xmlns:inkscape="http://www.inkscape.org/namespaces/inkscape"
   version="1.0"
   width="380"
   height="86"
   viewBox="0 0 3800 860"
   preserveAspectRatio="xMidYMid meet"
   id="svg60"
   sodipodi:docname="easton logo.svg"
   inkscape:version="0.92.5 (2060ec1f9f, 2020-04-08)">
  <metadata
     id="metadata66">
    <rdf:RDF>
      <cc:Work
         rdf:about="">
        <dc:format>image/svg+xml</dc:format>
        <dc:type
           rdf:resource="http://purl.org/dc/dcmitype/StillImage" />
        <dc:title></dc:title>
      </cc:Work>
    </rdf:RDF>
  </metadata>
  <defs
     id="defs64" />
  <sodipodi:namedview
     pagecolor="#ffffff"
     bordercolor="#666666"
     borderopacity="1"
     objecttolerance="10"
     gridtolerance="10"
     guidetolerance="10"
     inkscape:pageopacity="0"
     inkscape:pageshadow="2"
     inkscape:window-width="1920"
     inkscape:window-height="1017"
     id="namedview62"
     showgrid="false"
     inkscape:zoom="1.7265191"
     inkscape:cx="336.20695"
     inkscape:cy="87.048461"
     inkscape:window-x="-8"
     inkscape:window-y="-8"
     inkscape:window-maximized="1"
     inkscape:current-layer="svg60" />
  <g
     id="layer101"
     transform="matrix(0.31586992,0,0,0.31586992,0.68413008,53.564)"
     style="fill:#000000;stroke:none">
    <path
       d="m 5663,1820 c -53,-11 -112,-41 -141,-73 -38,-40 -38,-91 -4,-172 l 30,-70 206,-3 c 113,-1 206,0 206,3 0,3 -7,22 -15,42 -27,64 -30,63 228,63 265,0 248,5 287,-88 14,-31 19,-57 14,-62 -9,-8 -59,-17 -414,-70 -107,-16 -219,-34 -247,-39 -95,-19 -143,-57 -143,-113 0,-35 83,-232 116,-275 35,-46 146,-109 239,-135 77,-22 97,-22 485,-23 463,0 491,4 562,75 48,48 50,84 7,186 l -31,74 h -204 c -112,0 -204,-4 -204,-9 0,-5 7,-26 16,-47 26,-61 16,-64 -230,-64 -147,0 -218,4 -235,13 -34,17 -78,127 -57,143 8,5 68,18 133,28 617,91 623,92 655,155 15,31 15,36 -2,84 -33,95 -78,190 -104,223 -56,70 -183,134 -306,154 -77,12 -786,12 -847,0 z"
       id="path39"
       inkscape:connector-curvature="0" />
    <path
       d="m 8733,1820 c -53,-11 -112,-41 -141,-73 -49,-52 -45,-66 101,-420 75,-180 148,-343 163,-362 37,-50 144,-110 239,-137 76,-21 103,-22 520,-26 366,-3 452,-1 513,12 95,20 150,51 175,99 17,34 18,43 7,80 -11,37 -60,159 -109,272 -10,22 -49,116 -87,210 -90,220 -123,255 -305,323 l -74,27 -480,2 c -264,1 -499,-2 -522,-7 z m 895,-238 c 18,-12 222,-487 222,-518 0,-12 -53,-14 -297,-14 -164,0 -303,4 -309,8 -7,4 -38,68 -69,142 -31,74 -77,182 -101,239 -43,101 -51,131 -37,144 9,10 576,8 591,-1 z"
       id="path41"
       inkscape:connector-curvature="0" />
    <path
       d="m 2380,1799 c 0,-6 24,-68 53,-138 30,-69 121,-287 203,-483 l 149,-358 h 653 c 358,0 652,4 652,8 0,8 -33,94 -64,164 l -16,38 -441,2 -440,3 -35,78 c -19,43 -34,80 -34,82 0,3 142,5 315,5 245,0 315,3 315,13 0,6 -18,53 -39,102 l -39,90 -322,5 -323,5 -30,70 c -16,39 -31,82 -34,98 l -5,27 h 473 l 474,1 -105,99 -105,99 -627,1 c -451,0 -628,-3 -628,-11 z"
       id="path43"
       inkscape:connector-curvature="0" />
    <path
       d="m 3795,1782 c 17,-16 84,-80 150,-143 66,-63 215,-204 330,-315 116,-110 282,-269 370,-352 l 160,-152 h 207 c 188,0 207,2 212,18 3,9 16,71 30,137 14,66 44,203 66,305 55,249 100,458 107,498 l 6,32 -229,-2 c -194,-3 -229,-5 -231,-18 -1,-8 -7,-48 -13,-87 l -12,-73 h -277 -276 l -90,90 -90,90 h -225 -225 z m 1155,-341 c 0,-17 -51,-336 -56,-351 -5,-12 -8,-11 -20,5 -8,11 -87,92 -174,181 -88,88 -160,163 -160,167 0,4 92,7 205,7 120,0 205,-4 205,-9 z"
       id="path45"
       inkscape:connector-curvature="0" />
    <path
       d="m 7410,1801 c 0,-5 69,-175 154,-377 l 154,-369 -265,-3 c -206,-2 -264,-5 -259,-15 3,-6 24,-58 48,-114 l 42,-103 h 743 c 409,0 743,4 743,8 0,4 -20,55 -44,112 l -44,105 -266,3 -266,2 -14,33 c -17,40 -164,391 -212,507 -20,47 -42,99 -49,115 -7,17 -20,47 -29,68 l -15,37 h -210 c -118,0 -211,-4 -211,-9 z"
       id="path47"
       inkscape:connector-curvature="0" />
    <path
       d="m 10149,1788 c 5,-13 71,-169 146,-348 75,-179 163,-391 197,-472 l 61,-148 h 208 208 l 55,93 c 30,50 106,181 168,290 63,110 119,199 124,199 5,0 62,-127 126,-283 64,-155 121,-286 126,-291 4,-4 103,-7 219,-6 l 211,3 -28,65 c -16,36 -45,106 -66,155 -20,50 -61,146 -90,215 -112,265 -187,447 -207,497 l -20,53 -221,-2 -221,-3 -156,-293 c -86,-162 -159,-294 -163,-295 -4,-1 -38,72 -77,163 -38,91 -95,225 -125,298 l -57,132 h -213 -214 z"
       id="path49"
       inkscape:connector-curvature="0" />
  </g>
  <g
     id="layer102"
     transform="matrix(0.31586992,0,0,0.31586992,0.68413008,53.564)"
     style="fill:#ffde00;stroke:none">
    <path
       d="M 2005,2491 C 1989,2481 1788,2370 1560,2245 1135,2011 658,1749 238,1517 L 1,1386 26,1346 c 13,-23 52,-89 87,-148 l 62,-107 922,-1 h 923 l -26,57 c -14,32 -51,120 -82,195 -47,113 -61,138 -77,138 -20,0 -286,-34 -710,-89 -126,-17 -336,-44 -465,-61 -129,-16 -264,-34 -300,-40 -150,-22 -264,-65 1260,467 l 425,149 3,302 c 1,166 -1,302 -5,302 -5,0 -21,-9 -38,-19 z"
       id="path52"
       inkscape:connector-curvature="0" />
    <path
       d="m 240,979 c 1,-29 77,-124 120,-151 25,-15 137,-56 250,-92 543,-170 1383,-433 1825,-572 269,-85 493,-153 497,-152 4,2 -16,35 -44,74 -29,40 -71,97 -93,128 -22,31 -56,79 -75,105 -19,26 -59,81 -88,122 -29,41 -77,108 -108,150 l -54,76 -63,7 c -34,4 -138,18 -232,32 -93,14 -262,38 -375,54 -113,17 -297,43 -410,60 -113,16 -302,43 -420,60 -118,16 -225,32 -237,35 -12,3 -118,18 -235,35 -117,16 -223,32 -235,36 -16,4 -23,2 -23,-7 z"
       id="path54"
       inkscape:connector-curvature="0" />
  </g>
  <g
     id="layer103"
     transform="matrix(0.31586992,0,0,0.31586992,0.68413008,53.564)"
     style="fill:#ffffff;stroke:none">
    <path
       d="m 11822,2790 c 0,-19 2,-27 5,-17 2,9 2,25 0,35 -3,9 -5,1 -5,-18 z"
       id="path57"
       inkscape:connector-curvature="0" />
  </g>
</svg>
