<?xml version="1.0" encoding="utf-8"?>
<!-- Generator: Adobe Illustrator 16.0.4, SVG Export Plug-In . SVG Version: 6.00 Build 0)  -->
<!DOCTYPE svg PUBLIC "-//W3C//DTD SVG 1.1//EN" "http://www.w3.org/Graphics/SVG/1.1/DTD/svg11.dtd">
<svg version="1.1" id="Layer_1" xmlns="http://www.w3.org/2000/svg" xmlns:xlink="http://www.w3.org/1999/xlink" x="0px" y="0px"
	 width="283.46px" height="283.46px" viewBox="0 0 283.46 283.46" enable-background="new 0 0 283.46 283.46" xml:space="preserve">
<g>
	<rect fill="#001489" width="283.465" height="283.463"/>
	<path fill="#FFFFFF" d="M134.971,145.363c2.946-8.053,5.12-14.343,11.658-19.027c-7.967,1.912-18.941,3.311-28.37,3.336
		C124.682,133.439,132.565,140.915,134.971,145.363 M228.893,101.171c-68.084,20.726-84.24,25.907-75.113,62.375h-28.525
		c-0.628-7.938-18.102-44.488-91.736-45.352c0,0,35.03-9.095,39.847-10.61c25.153-7.893,42.186-13.931,42.186-13.931
		c-29.606,25.65-6.786,30.213,42.179,18.378c31.08-7.52,63.031-18.994,84.979-29.357L228.893,101.171z"/>
	<path fill="#FFFFFF" d="M83.682,200.785l23.388-28.311v21.363c0,3.84-3.084,6.947-6.919,6.947H83.682z"/>
	<path fill="#FFFFFF" d="M149.414,181.633c0.828-0.965,1.303-2.25,1.303-3.607v-4.975h-25.445v5.537h14.069l-12.326,13.617
		c-0.821,0.973-1.368,2.152-1.368,3.52v5.055h25.424v-5.529h-13.947L149.414,181.633z"/>
	<path fill="#FFFFFF" d="M213.34,173.061c-3.068,0-5.596,2.477-5.596,5.539v16.629c0,3.078,2.527,5.557,5.596,5.557h19.807
		c3.066,0,5.518-2.479,5.518-5.557V178.6c0-3.062-2.455-5.539-5.523-5.539H213.34z M225.311,178.588c1.535,0,2.77,1.242,2.77,2.781
		v11.102c0,1.533-1.234,2.779-2.775,2.779h-4.182c-1.539,0-2.775-1.246-2.775-2.779v-11.102c0-1.539,1.236-2.781,2.775-2.781
		H225.311z"/>
	<path fill="#FFFFFF" d="M111.384,173.057h10.598v22.184c0,3.066-2.449,5.545-5.511,5.545h-5.087V173.057z"/>
	<path fill="#FFFFFF" d="M159.975,200.785c-3.072,0-5.59-2.479-5.59-5.557v-22.178h10.59v19.408c0,1.535,1.273,2.791,2.818,2.791
		h3.393c1.539,0,2.742-1.246,2.742-2.779v-19.42h24.635c3.074,0,5.529,2.482,5.529,5.549v22.186h-10.6v-19.439
		c0-1.533-1.246-2.758-2.773-2.758h-6.182v16.641c0,3.078-2.459,5.557-5.521,5.557H159.975z"/>
	<path fill="#FFFFFF" d="M85.921,168.16l-27.046,32.625h15.35l20.508-24.729c1.539-1.838,3.851-3,6.438-3h5.898v-9.543H95.792
		C91.82,163.514,88.266,165.326,85.921,168.16"/>
	<path fill="#FFFFFF" d="M61.044,168.16l-27.041,32.625h15.344l20.508-24.729c1.54-1.838,3.857-3,6.439-3h5.589v-9.543H70.914
		C66.948,163.514,63.394,165.326,61.044,168.16"/>
	<path fill="#FFFFFF" d="M246.773,195.328l-0.922-0.166h-0.656v1.545h0.689l0.729-0.088l0.441-0.674L246.773,195.328
		 M245.941,194.633c0.533,0,0.926,0.055,1.174,0.154c0.447,0.188,0.674,0.553,0.674,1.092l-0.42,0.85l-0.611,0.211l0.723,0.418
		l0.232,0.662v0.32l0.01,0.32l0.039,0.221l0.027,0.055h-0.713l-0.004-0.045l-0.018-0.043l-0.016-0.145v-0.342l-0.404-0.98
		l-0.844-0.139h-0.596v1.693h-0.76v-4.303H245.941z M243.623,194.418c-0.656,0.656-0.988,1.457-0.988,2.389
		c0,0.938,0.326,1.742,0.984,2.404c0.656,0.664,1.449,0.996,2.387,0.996c0.939,0,1.74-0.332,2.396-0.996
		c0.65-0.662,0.98-1.467,0.98-2.404c0-0.932-0.33-1.732-0.98-2.389c-0.662-0.662-1.457-0.988-2.396-0.988
		C245.074,193.43,244.279,193.756,243.623,194.418 M248.793,199.578c-0.766,0.771-1.689,1.158-2.781,1.158
		c-1.074,0-2.002-0.387-2.764-1.158c-0.762-0.764-1.137-1.691-1.137-2.777c0-1.076,0.381-2.002,1.148-2.758
		c0.762-0.762,1.682-1.143,2.752-1.143c1.092,0,2.016,0.381,2.781,1.143c0.768,0.756,1.148,1.682,1.148,2.758
		C249.941,197.887,249.561,198.814,248.793,199.578"/>
</g>
</svg>
